<svg width="128" height="128" viewBox="0 0 128 128" fill="none" xmlns="http://www.w3.org/2000/svg">
  <!-- Fondo con gradiente profesional -->
  <rect width="128" height="128" rx="32" fill="#2C3E50"/>
  
  <!-- Documento -->
  <path d="M40 30C40 27.7909 41.7909 26 44 26H74L88 40V98C88 100.209 86.2091 102 84 102H44C41.7909 102 40 100.209 40 98V30Z" fill="white"/>
  <path d="M74 26V36C74 38.2091 75.7909 40 78 40H88L74 26Z" fill="#E2E8F0"/>
  
  <!-- Líneas de datos -->
  <rect x="50" y="52" width="28" height="3" rx="1.5" fill="#BDC3C7"/>
  <rect x="50" y="60" width="20" height="3" rx="1.5" fill="#BDC3C7"/>
  <rect x="50" y="68" width="24" height="3" rx="1.5" fill="#BDC3C7"/>
  
  <!-- Lupa (Símbolo de Inspección) -->
  <circle cx="82" cy="82" r="18" fill="#3498DB" stroke="white" stroke-width="3"/>
  <path d="M94 94L104 104" stroke="white" stroke-width="6" stroke-linecap="round"/>
  <circle cx="82" cy="82" r="8" stroke="white" stroke-width="3" opacity="0.5"/>
</svg>
